<svg width="25" height="24" viewBox="0 0 25 24" fill="none" xmlns="http://www.w3.org/2000/svg">
<path d="M22.5001 13.8155H14.1668V22.1488C14.1668 23.0655 13.4168 23.8155 12.5001 23.8155C11.5834 23.8155 10.8334 23.0655 10.8334 22.1488V13.8155H2.5001C1.58344 13.8155 0.833435 13.0655 0.833435 12.1488C0.833435 11.2322 1.58344 10.4822 2.5001 10.4822H10.8334V2.14883C10.8334 1.23216 11.5834 0.482162 12.5001 0.482162C13.4168 0.482162 14.1668 1.23216 14.1668 2.14883V10.4822H22.5001C23.4168 10.4822 24.1668 11.2322 24.1668 12.1488C24.1668 13.0655 23.4168 13.8155 22.5001 13.8155Z" fill="white"/>
</svg>
